<svg xmlns="http://www.w3.org/2000/svg" xml:space="preserve" width="1083.5897" height="1659.5747" viewBox="0 0 1083.5897 1659.5747"><defs><clipPath id="a" clipPathUnits="userSpaceOnUse"><path d="M0 1190.551h841.89V0H0Z"/></clipPath></defs><g clip-path="url(#a)" transform="matrix(1.502 0 0 -1.502 -87.116 1682.653)"><path d="m0 0 68.483 4.759S91.655 12 92.276 40.138c.434 19.655-14.069 24.828-14.069 24.828l-16.159-1.375L-3.59 56.94Z" style="fill:#19a980;fill-opacity:1;fill-rule:nonzero;stroke:none" transform="translate(684.645 960.842)"/><path d="m0 0 3.28-52.027 65.656 4.562c2.531.887 21.24 8.279 21.785 32.963.346 15.747-9.705 21.205-11.965 22.23L63.203 6.404Zm-1.394-57.364L-5.293 4.489l68.032 6.894 16.74 1.425.511-.183c.661-.236 16.198-6.022 15.729-27.237-.653-29.592-25.298-37.633-25.546-37.711l-.28-.087z" style="fill:#231f20;fill-opacity:1;fill-rule:nonzero;stroke:none" transform="translate(683.702 1015.538)"/><path d="M0 0c-48.309-9.84-111.019-123.446-98.899-261.429 6.88 62.983 31.473 81.915 43.547 86.316-63.997-114.665-24.331-250.077-22-263.333 53.335-303.332-57.646-414.924-57.646-414.924l-520-63s-23.01 5.691-15 37c9.333 36.481 40 32 40 32s102 149 75.876 411.812c-2.192 22.052-5.897 42.112-16.899 108.186C-599.1-158.744-557.998-97.37-467.998-42.37z" style="fill:#33a476;fill-opacity:1;fill-rule:nonzero;stroke:none" transform="translate(749.019 1024.722)"/><path d="M0 0c-8.012 0-27.403-2.952-34.398-30.295-6.769-26.46 9.838-32.915 12.779-33.837L496.98-1.302c4.062 4.427 28.803 33.054 47.776 92.519 19.059 59.737 36.024 163.675 8.608 319.599-.182 1.037-.63 2.964-1.25 5.632-3.385 14.582-12.379 53.317-13.029 101.102-.776 56.919 10.223 107.702 32.709 151.096-11.16-7.469-29.234-27.593-35.03-80.651l-4.976.052c-5.521 62.866 4.062 126.783 26.983 179.976 16.023 37.182 37.237 65.191 58.071 77.683l-450.855-40.818C78.678 751.4 36.698 690.436 64.623 522.734c2.031-12.201 3.814-22.833 5.385-32.197 6.888-41.084 9.74-58.089 11.535-76.152 5.977-60.124 5.695-119.256-.838-175.754-5.229-45.216-14.45-88.857-27.408-129.71C31.207 39.273 5.5 1.288 5.243.913L4.361-.374l-1.543.226C2.813-.147 1.748 0 0 0m-21.975-69.212-.445.11c-.374.093-9.209 2.367-14.594 11.372-4.445 7.432-5.194 17.081-2.228 28.675C-31.379 1.682-9.18 5 0 5c.743 0 1.385-.022 1.911-.053 4.476 6.946 27.006 43.562 46.693 105.713 20.176 63.697 41.405 168.011 27.964 303.231-1.779 17.896-4.622 34.852-11.491 75.818-1.571 9.367-3.354 20.001-5.386 32.204-13.69 82.211-11.341 141.466 7.39 186.482 16.391 39.394 45.339 69.618 96.795 101.063l.498.305.58.052 467.998 42.37.725-4.939c-23.884-4.866-50.826-35.98-70.314-81.201-19.802-45.955-29.505-100.063-27.936-154.498 10.679 50.129 33.919 62.605 41.543 65.384l6.315 2.302-3.276-5.869c-26.551-47.572-52.098-130.564-23.024-255.785.637-2.744 1.098-4.727 1.303-5.897 12.199-69.376 16.75-134.435 13.527-193.369-2.581-47.209-10.127-90.623-22.43-129.038-21.021-65.633-48.282-93.556-49.433-94.713l-.611-.615-.861-.103z" style="fill:#231f20;fill-opacity:1;fill-rule:nonzero;stroke:none" transform="translate(115.84 175.026)"/><path d="M0 0c-8.156 0-27.889-2.94-34.966-30.179-5.73-22.055 5.129-31.556 12.775-33.829L477.847-3.391c-3.779 3.381-8.537 9.016-10.701 17.186l-.64 2.42 2.422.638c3.853 1.013 21.845 3.508 22.609 3.614l.19.018c.455.036 11.614 1.098 12.27 18.14.691 17.97-9.453 20.273-12.086 20.567L3.347-.209l-.332.049C3.009-.159 1.865 0 0 0m-22.562-69.09-.464.123c-9.446 2.505-23.61 13.757-16.779 40.046C-31.851 1.695-9.318 5 0 5c1.626 0 2.816-.105 3.379-.168L491.832 64.22l.254-.022c1.826-.15 17.815-2.157 16.907-25.764-.786-20.434-14.987-22.716-16.776-22.921-4.197-.58-14.292-2.032-19.44-2.966 3.859-10.503 12.697-15.416 12.792-15.468l6.87-3.737z" style="fill:#231f20;fill-opacity:1;fill-rule:nonzero;stroke:none" transform="translate(116.386 174.825)"/><path d="M0 0c-5.387 2.021-20.372 13.858-18.631 40.82 1.38 21.366 24.735 30.5 25.729 30.878l1.779-4.672-.89 2.336.893-2.335c-.213-.082-21.35-8.395-22.521-26.529C-15.214 16.146-1.896 6.052 1.756 4.682Z" style="fill:#231f20;fill-opacity:1;fill-rule:nonzero;stroke:none" transform="translate(600.278 167.17)"/><path d="m0 0-.844 4.928L15.55 7.736c-1.982 2.435-2.683 4.688-3.205 6.365-.088.283-.173.556-.261.818l-.095.373c-.764 4.435-.975 7.547-.994 9.548l-11.862.257.107 4.998 17.307-.373-.475-2.849c-.001-.008-.441-3.182.814-10.549.078-.238.154-.484.233-.737.681-2.188 1.453-4.668 5.287-7.437l4.826-3.485z" style="fill:#231f20;fill-opacity:1;fill-rule:nonzero;stroke:none" transform="translate(586.371 186.796)"/><path d="M0 0c.478-.581 1.627-1.765 3.271-2.089 1.539-.304 3.272.198 5.155 1.492 12.025 8.259 12.612 22.591 9.561 28.295-.591 1.105-1.531 2.326-2.666 1.875C.442 23.622-1.335 8.455 0 0m8.999-22.92c-.478.398-11.732 9.874-13.825 21.473-1.772 9.82.087 28.381 18.29 35.662 3.406 1.363 6.831-.229 8.932-4.159 4.337-8.108 2.865-25.157-11.14-34.775C8.26-6.777 5.287-7.548 2.417-7.017c3.601-6.842 9.702-11.995 9.781-12.061z" style="fill:#231f20;fill-opacity:1;fill-rule:nonzero;stroke:none" transform="translate(741.633 986.673)"/><path d="m0 0-.248 4.994 25.035 1.241.248-4.994Z" style="fill:#231f20;fill-opacity:1;fill-rule:nonzero;stroke:none" transform="translate(732.356 1015.242)"/><path d="M0 0c0-16.292-13.325-29.865-29.617-29.865s-29.5 13.208-29.5 29.5c0 16.293 13.625 32.603 35.518 29.866.303 2.433 8.974 246.512 8.974 246.512l-170.992.122 12.31-245.723c18.069 3.034 33.326-13.915 33.379-29.932.052-15.413-13.224-29.241-29.241-29.241-16.016 0-31.448 13.915-31.448 29.931l-255 16.965v-169s254.06 10.31 254.06 10.979c0 16.016 13.074 29.909 29.09 29.909 16.017 0 28.755-11.872 28.85-27.888.069-11.686-11.587-26.534-26.567-27.668-.079-1.74-12.557-663.242-12.557-663.242l164.004.38-7.613 660.197c-15.22.381-30.441 14.425-30.441 30.441s12.157 27.892 28.174 27.892c16.016 0 29.285-11.876 29.285-27.892l256.715-11.108v165z" style="fill:#eb2037;fill-opacity:1;fill-rule:nonzero;stroke:none" transform="translate(513.617 844.14)"/><path d="M0 0c-.797-33.734-13.486-595.025-14.458-638.048l135.918.366-6.863 635.984c-16.75 5.354-28.719 21.526-28.719 39.173 0 22.672 18.445 41.118 41.118 41.118a41.064 41.064 0 0 0 38.427-26.455l231.056-7.3V175.62l-231.972-12.434c-5.781-16.743-21.792-29.164-37.929-29.165-.419 0-.839.008-1.26.024-23.619.886-40.115 18.372-40.115 42.525 0 18.172 11.895 33.99 29.151 39.096.768 16.344 5.88 147.488 8.699 220.329l-134.899.089 10.598-217.688c18.204-5.422 30.759-22.155 30.759-41.323 0-23.778-19.344-43.122-43.122-43.122-17.928 0-34.33 11.535-40.491 28.257l-227.419 12.41V42.848c74.622 2.637 209.94 7.536 225.743 8.535 5.689 16.534 21.551 27.941 39.16 27.941 22.826 0 41.396-18.571 41.396-41.397C24.778 21.312 15.108 6.603 0 0m-19.573-643.062.058 2.564C-18.924-614.345-5.036.052-4.957 1.801l.074 1.623 1.513.592c14.062 5.498 23.148 18.808 23.148 33.911 0 20.069-16.327 36.397-36.396 36.397-15.894 0-30.168-10.566-34.809-25.729-.242-1.983-2.139-2.091-4.916-2.25a691.812 691.812 0 0 0-7.333-.362 4849.96 4849.96 0 0 0-26.082-1.087c-19.09-.757-45.706-1.763-79.111-2.991-56.874-2.091-114.488-4.125-115.064-4.146l-2.588-.091v142.23l236.087-12.882.527-1.637c5.009-15.561 19.934-26.428 36.296-26.428 21.02 0 38.122 17.101 38.122 38.122 0 17.498-11.834 32.701-28.779 36.969l-1.796.453-11.031 226.592 145.345-.095-.101-2.596c-.88-22.767-8.613-222.512-8.92-224.979l-.212-1.705-1.668-.413c-15.983-3.958-27.146-18.238-27.146-34.729 0-18.021 10.916-36.614 35.303-37.528.358-.014.716-.021 1.072-.021 16.579.001 29.728 14.059 33.682 27.285l.504 1.686 240.715 12.904V39.678l-239.658 7.571-.551 1.653a36.073 36.073 0 0 1-34.274 24.691c-19.916 0-36.118-16.202-36.118-36.118 0-16.06 11.289-30.729 26.843-34.88l1.835-.49 6.959-644.773z" style="fill:#fff;fill-opacity:1;fill-rule:nonzero;stroke:none" transform="translate(358.02 668.018)"/></g></svg>